<svg xmlns="http://www.w3.org/2000/svg" viewBox="0 0 1440 320">
  <path fill="#74e295" fill-opacity="1" d="M0,288L0,288L84.7,288L84.7,160L169.4,160L169.4,32L254.1,32L254.1,256L338.8,256L338.8,288L423.5,288L423.5,128L508.2,128L508.2,0L592.9,0L592.9,128L677.6,128L677.6,192L762.4,192L762.4,224L847.1,224L847.1,160L931.8,160L931.8,192L1016.5,192L1016.5,32L1101.2,32L1101.2,96L1185.9,96L1185.9,32L1270.6,32L1270.6,64L1355.3,64L1355.3,192L1440,192L1440,320L1355.3,320L1355.3,320L1270.6,320L1270.6,320L1185.9,320L1185.9,320L1101.2,320L1101.2,320L1016.5,320L1016.5,320L931.8,320L931.8,320L847.1,320L847.1,320L762.4,320L762.4,320L677.6,320L677.6,320L592.9,320L592.9,320L508.2,320L508.2,320L423.5,320L423.5,320L338.8,320L338.8,320L254.1,320L254.1,320L169.4,320L169.4,320L84.7,320L84.7,320L0,320L0,320Z"></path>
</svg>